<svg width="52" height="52" viewBox="0 0 52 52" fill="none" xmlns="http://www.w3.org/2000/svg">
<g clip-path="url(#clip0_279_335)">
<path d="M36.0626 16.8222C36.0626 16.5668 35.8536 16.3579 35.5983 16.3579L31.7679 16.3753L25.9992 23.2526L20.2362 16.3811L16.4001 16.3637C16.1447 16.3637 15.9358 16.5668 15.9358 16.828C15.9358 16.9383 15.9764 17.0427 16.0461 17.1298L23.5965 26.1253L16.0461 35.1151C15.9759 35.2001 15.937 35.3066 15.9358 35.4168C15.9358 35.6722 16.1447 35.8811 16.4001 35.8811L20.2362 35.8637L25.9992 28.9865L31.7621 35.8579L35.5925 35.8753C35.8478 35.8753 36.0568 35.6722 36.0568 35.411C36.0568 35.3008 36.0162 35.1963 35.9465 35.1092L28.4077 26.1195L35.9581 17.124C36.0278 17.0427 36.0626 16.9325 36.0626 16.8222Z" fill="white" fill-opacity="0.9"/>
<path d="M26 0C11.642 0 0 11.642 0 26C0 40.358 11.642 52 26 52C40.358 52 52 40.358 52 26C52 11.642 40.358 0 26 0ZM26 47.5893C14.0795 47.5893 4.41071 37.9205 4.41071 26C4.41071 14.0795 14.0795 4.41071 26 4.41071C37.9205 4.41071 47.5893 14.0795 47.5893 26C47.5893 37.9205 37.9205 47.5893 26 47.5893Z" fill="white" fill-opacity="0.9"/>
</g>
<defs>
<clipPath id="clip0_279_335">
<rect width="52" height="52" fill="white"/>
</clipPath>
</defs>
</svg>
